<svg width="50" height="61" viewBox="0 0 50 61" fill="none" xmlns="http://www.w3.org/2000/svg">
<path d="M46.6467 15.6706C46.5913 15.0102 46.0388 14.5041 45.3804 14.5106H35.7568V10.8382C35.7568 4.85231 30.9376 0 24.9936 0C19.0491 0 14.2303 4.85231 14.2303 10.8382V14.5106H4.60673C3.95134 14.5131 3.40428 15.0142 3.34047 15.6706L0.0229591 54.0767C-0.127904 55.8573 0.469614 57.6205 1.67108 58.9369C2.87205 60.2529 4.56617 61.0015 6.34142 61H43.6581C45.4333 61.0015 47.1275 60.2529 48.3284 58.9369C49.5299 57.6205 50.1279 55.8573 49.9771 54.0767L46.6467 15.6706ZM16.7629 10.8382C16.7629 6.26088 20.4479 2.55018 24.9936 2.55018C29.5393 2.55018 33.2243 6.26088 33.2243 10.8382V14.5106H16.7629V10.8382ZM46.4567 57.2131C45.7405 58.007 44.7231 58.4568 43.6581 58.4498H6.32856C5.26361 58.4503 4.24763 58.0006 3.52744 57.2106C2.80775 56.4201 2.45013 55.3617 2.54263 54.2933L5.75874 17.0608H14.2303V25.0171C12.1939 25.6482 10.9222 27.6838 11.2393 29.8057C11.5559 31.927 13.3662 33.496 15.4966 33.496C17.627 33.496 19.4369 31.927 19.7539 29.8057C20.0705 27.6838 18.7988 25.6482 16.7629 25.0171V17.0478H33.2243V25.0171C31.1879 25.6482 29.9162 27.6838 30.2332 29.8057C30.5498 31.927 32.3602 33.496 34.4906 33.496C36.6209 33.496 38.4308 31.927 38.7479 29.8057C39.0644 27.6838 37.7927 25.6482 35.7568 25.0171V17.0478H44.2156L47.4317 54.2804C47.5355 55.3533 47.1809 56.4196 46.4567 57.2131V57.2131ZM15.3067 27.389C15.4328 27.4059 15.5604 27.4059 15.6865 27.389C16.6229 27.4906 17.3173 28.3124 17.2669 29.2593C17.2159 30.2066 16.4384 30.9488 15.4966 30.9488C14.5543 30.9488 13.7768 30.2066 13.7263 29.2593C13.6759 28.3124 14.3698 27.4906 15.3067 27.389ZM34.3006 27.389C34.4267 27.4059 34.5544 27.4059 34.6805 27.389C35.6168 27.4906 36.3113 28.3124 36.2608 29.2593C36.2099 30.2066 35.4323 30.9488 34.4906 30.9488C33.5483 30.9488 32.7707 30.2066 32.7203 29.2593C32.6698 28.3124 33.3638 27.4906 34.3006 27.389V27.389Z" fill="black"/>
<path d="M28.594 43.616C28.594 44.24 28.444 44.822 28.144 45.362C27.844 45.89 27.388 46.316 26.776 46.64C26.164 46.964 25.414 47.126 24.526 47.126C23.662 47.126 22.888 46.976 22.204 46.676C21.52 46.364 20.974 45.932 20.566 45.38C20.158 44.828 19.924 44.192 19.864 43.472H22.06C22.12 44.024 22.354 44.498 22.762 44.894C23.182 45.29 23.74 45.488 24.436 45.488C25.06 45.488 25.54 45.32 25.876 44.984C26.224 44.648 26.398 44.216 26.398 43.688C26.398 43.232 26.272 42.86 26.02 42.572C25.768 42.272 25.456 42.038 25.084 41.87C24.712 41.702 24.202 41.51 23.554 41.294C22.762 41.042 22.114 40.79 21.61 40.538C21.118 40.286 20.698 39.92 20.35 39.44C20.002 38.96 19.828 38.33 19.828 37.55C19.828 36.866 19.996 36.266 20.332 35.75C20.668 35.234 21.148 34.838 21.772 34.562C22.396 34.274 23.116 34.13 23.932 34.13C25.228 34.13 26.254 34.442 27.01 35.066C27.778 35.69 28.216 36.506 28.324 37.514H26.11C26.026 37.034 25.798 36.626 25.426 36.29C25.066 35.942 24.568 35.768 23.932 35.768C23.356 35.768 22.894 35.918 22.546 36.218C22.198 36.506 22.024 36.926 22.024 37.478C22.024 37.91 22.144 38.27 22.384 38.558C22.624 38.834 22.924 39.056 23.284 39.224C23.656 39.38 24.16 39.566 24.796 39.782C25.6 40.034 26.254 40.292 26.758 40.556C27.274 40.808 27.706 41.18 28.054 41.672C28.414 42.164 28.594 42.812 28.594 43.616Z" fill="#29A867"/>
</svg>
