<svg width="40" height="40" viewBox="0 0 40 40" fill="none" xmlns="http://www.w3.org/2000/svg">
<path d="M12.5 36.25C13.8807 36.25 15 35.1307 15 33.75C15 32.3693 13.8807 31.25 12.5 31.25C11.1193 31.25 10 32.3693 10 33.75C10 35.1307 11.1193 36.25 12.5 36.25Z" fill="black"/>
<path d="M28.75 36.25C30.1307 36.25 31.25 35.1307 31.25 33.75C31.25 32.3693 30.1307 31.25 28.75 31.25C27.3693 31.25 26.25 32.3693 26.25 33.75C26.25 35.1307 27.3693 36.25 28.75 36.25Z" fill="black"/>
<path d="M6.60715 11.25H34.6429L30.5181 25.6868C30.3688 26.2092 30.0535 26.6687 29.6197 26.9959C29.186 27.323 28.6575 27.5 28.1142 27.5H13.1358C12.5925 27.5 12.064 27.323 11.6303 26.9959C11.1965 26.6687 10.8812 26.2092 10.7319 25.6868L5.08046 5.9066C5.00583 5.64541 4.84816 5.41564 4.6313 5.25206C4.41443 5.08849 4.15019 5 3.87855 5H1.25" stroke="black" stroke-width="2" stroke-linecap="round" stroke-linejoin="round"/>
</svg>
